<svg id="Layer_1" xmlns="http://www.w3.org/2000/svg" version="1.1" viewBox="0 0 553.41 279.53">
  <!-- Generator: Adobe Illustrator 30.6.0, SVG Export Plug-In . SVG Version: 2.1.4 Build 109)  -->
  <defs>
    <style>
      .st0, .st1 {
        fill: #fff;
      }

      .st1 {
        fill-rule: evenodd;
      }
    </style>
  </defs>
  <g>
    <path class="st0" d="M276.35,275.72c-2.57-1.01-5.31-.7-7.97-.98-30.22-3.09-58.45-11.93-83.16-29.96-17.76-12.96-30.89-29.64-36.88-51.2-4.47-16.08-3.53-32.21-.06-48.34,3.34-15.53,9.87-29.89,15.98-44.41,8.88-21.1,17.77-42.2,26.64-63.31.34-.8.91-1.57.8-2.7-23.98,26.01-47.87,51.91-72.06,78.15-6.16-26.91-12.22-53.39-18.34-80.16-1.02.92-1.23,1.99-1.62,2.9-16.34,38.12-32.67,76.25-48.92,114.41-.78,1.84-1.68,2.4-3.65,2.38-12.9-.1-25.79-.05-38.69-.05-.81,0-1.62,0-2.76,0,1.82-4.19,3.51-8.13,5.23-12.06C30.46,95.73,50.05,51.06,69.58,6.36c.8-1.83,1.67-2.56,3.77-2.55,18.14.1,36.28.09,54.42,0,2.06,0,2.58.64,2.83,2.6,1.94,15.24,4.02,30.46,6.06,45.68.07.48.24.96.46,1.84,2.21-2.83,4.23-5.41,6.24-8,10.23-13.21,20.47-26.41,30.67-39.64.76-.98,1.49-1.54,2.85-1.54,23.8.05,47.6.04,71.39.04.25,0,.49.05.79.09.26.99-.4,1.72-.73,2.5-20.37,47.67-40.78,95.33-61.15,143.01-4.96,11.6-8.44,23.62-8.96,36.31-.96,23.62,8.71,41.48,29.46,53.06,12.11,6.76,25.32,10.06,39.05,10.97,47.28,3.14,89.49-11.3,127.99-37.77,21.79-14.98,39.63-33.88,53.32-56.56.64-1.05,1.31-1.47,2.55-1.46,28.46.04,56.92.03,85.37.03.23,0,.47.07.67.1.26.45-.1.65-.31.85-34.29,34.79-72.14,64.91-115.57,87.65-25.14,13.17-51.44,23.19-79.45,28.37-9.09,1.68-18.24,2.77-27.47,3.28-.67.04-1.52-.39-2.01.49h-1.5c-.9-.53-1.89-.13-2.83-.26-2.14,0-4.28,0-6.42,0-1.24.14-2.52-.3-3.73.26h-1Z"/>
    <path class="st0" d="M432.01,150.12q1.65-4.45,5.77-4.45h88.13c-2.13,2.61-3.67,4.59-7.35,4.56-27.94-.2-55.88-.11-83.83-.11h-2.73Z"/>
    <path class="st0" d="M436.7,140.88c.17-1.52.68-2.31,2.33-2.31,30.84.04,61.68.03,92.51.04.15,0,.3.09.6.18-.71,1.47-1.65,2.23-3.41,2.22-30.17-.04-60.35-.03-90.52-.03-.48,0-.95-.06-1.51-.09Z"/>
  </g>
  <path class="st1" d="M228.3,77.35l6.43-.02,16.52-39.85-6.12-.05,5.96-13.86,67.92.64-8.96,20.81-21.29-.58,2.7-6.87-14.89.16-5.98,12.34,20.4.03-4.93,12.38-20.51.02-6.25,14.76,15.68-.05,2.18-6.24c.63-1.76,2.03-2.26,3.79-2.19l19.28-.22-9.95,21.36h-68.54l6.58-12.56Z"/>
  <path class="st1" d="M353.15,37.82h14.84l-16.83,39.07-15.61.15,17.6-39.22ZM327.75,37.9l-6.35-.5,5.52-13.68,21.65.1,22.32.17c14.81-.33,26.91,2,22.85,13.54l-19.77,42.65c-4.57,7.62-12.45,10.29-21.27,10.39l-54.94-.19,6.74-13.58,6.42.15,16.83-39.05Z"/>
  <path class="st1" d="M444.49,37.05l-4.59,26.81-12.85-.61,17.44-26.2ZM385.59,77.19l6.97.07,37.54-53.06,40.11-.23-8.54,53.68h6.4s-6.22,13.96-6.22,13.96l-30.22-.28,3.81-16.31-15.28-.13-10.25,16.39-30.6-.15,6.27-13.94Z"/>
  <polygon class="st1" points="474.48 77.81 482.13 77.32 498.6 38.53 491.92 37.99 498.04 25.04 536.48 24.87 530.5 38.45 523.59 38.23 506.61 77.69 519.08 77.65 524.08 65.91 547.76 65.66 536.29 91.29 468.66 91.44 474.48 77.81"/>
</svg>
